<?xml version="1.0" standalone="no"?>
<!DOCTYPE svg PUBLIC "-//W3C//DTD SVG 20010904//EN"
 "http://www.w3.org/TR/2001/REC-SVG-20010904/DTD/svg10.dtd">
<svg version="1.0" xmlns="http://www.w3.org/2000/svg"
 width="512.000000pt" height="512.000000pt" viewBox="0 0 512.000000 512.000000"
 preserveAspectRatio="xMidYMid meet">

<g transform="translate(0.000000,512.000000) scale(0.100000,-0.100000)"
fill="#000000" stroke="none">
<path d="M4386 4870 c-63 -16 -153 -70 -197 -117 -22 -24 -55 -74 -72 -111
-29 -61 -32 -76 -32 -163 0 -90 2 -99 37 -171 45 -91 103 -147 196 -191 61
-29 76 -32 162 -32 86 0 101 3 162 32 93 44 151 100 196 191 35 72 37 81 37
172 0 91 -2 100 -37 172 -68 136 -188 217 -336 224 -42 2 -94 -1 -116 -6z"/>
<path d="M240 2880 l0 -1440 1120 0 c888 0 1121 3 1124 13 3 6 7 42 10 80 l7
67 -91 0 -90 0 0 480 0 480 240 0 240 0 0 -176 0 -177 78 74 c99 95 187 158
309 220 350 178 757 184 1118 15 l95 -45 0 727 0 728 -69 17 c-38 10 -95 34
-127 53 l-58 35 -243 -243 c-196 -196 -243 -247 -238 -263 15 -49 17 -109 4
-152 -17 -62 -96 -143 -155 -161 -94 -28 -169 -8 -239 63 -70 69 -92 153 -64
235 12 32 11 33 -69 112 -79 80 -80 81 -112 69 -42 -14 -98 -14 -140 0 l-32
12 -199 -199 c-160 -160 -199 -203 -194 -219 30 -100 11 -180 -59 -250 -102
-101 -230 -101 -331 0 -101 101 -101 229 0 331 70 70 150 89 250 59 16 -5 59
34 219 194 l199 199 -12 32 c-49 142 75 310 229 310 63 0 114 -23 165 -75 70
-69 92 -153 64 -235 -12 -32 -11 -33 68 -112 l81 -80 37 12 c35 12 104 9 150
-5 16 -5 67 41 263 238 l244 244 -26 38 c-15 21 -34 60 -44 87 l-17 48 -1852
0 -1853 0 0 -1440z m320 1200 l0 -80 -80 0 -80 0 0 80 0 80 80 0 80 0 0 -80z
m1280 0 l0 -80 -560 0 -560 0 0 80 0 80 560 0 560 0 0 -80z m-1280 -320 l0
-80 -80 0 -80 0 0 80 0 80 80 0 80 0 0 -80z m1280 0 l0 -80 -560 0 -560 0 0
80 0 80 560 0 560 0 0 -80z m-1280 -320 l0 -80 -80 0 -80 0 0 80 0 80 80 0 80
0 0 -80z m1280 0 l0 -80 -560 0 -560 0 0 80 0 80 560 0 560 0 0 -80z m-1280
-320 l0 -80 -80 0 -80 0 0 80 0 80 80 0 80 0 0 -80z m1280 0 l0 -80 -560 0
-560 0 0 80 0 80 560 0 560 0 0 -80z m320 -880 l0 -640 -240 0 -240 0 0 640 0
640 240 0 240 0 0 -640z m-1280 -240 l0 -400 -240 0 -240 0 0 400 0 400 240 0
240 0 0 -400z m640 -80 l0 -320 -240 0 -240 0 0 320 0 320 240 0 240 0 0 -320z"/>
<path d="M1840 2240 l0 -480 80 0 80 0 0 480 0 480 -80 0 -80 0 0 -480z"/>
<path d="M560 2000 l0 -240 80 0 80 0 0 240 0 240 -80 0 -80 0 0 -240z"/>
<path d="M1200 1920 l0 -160 80 0 80 0 0 160 0 160 -80 0 -80 0 0 -160z"/>
<path d="M2905 3975 c-16 -15 -25 -36 -25 -55 0 -19 9 -40 25 -55 15 -16 36
-25 55 -25 19 0 40 9 55 25 16 15 25 36 25 55 0 19 -9 40 -25 55 -15 16 -36
25 -55 25 -19 0 -40 -9 -55 -25z"/>
<path d="M3385 3495 c-16 -15 -25 -36 -25 -55 0 -19 9 -40 25 -55 15 -16 36
-25 55 -25 19 0 40 9 55 25 16 15 25 36 25 55 0 19 -9 40 -25 55 -15 16 -36
25 -55 25 -19 0 -40 -9 -55 -25z"/>
<path d="M2185 3255 c-50 -49 -15 -135 55 -135 41 0 80 39 80 80 0 41 -39 80
-80 80 -19 0 -40 -9 -55 -25z"/>
<path d="M3588 2464 c-592 -86 -1020 -656 -937 -1250 12 -90 48 -219 81 -292
l23 -51 130 75 c72 42 133 79 137 82 4 4 -3 36 -16 72 -123 338 12 729 320
930 81 53 214 105 294 116 29 4 54 12 56 18 3 7 3 79 2 162 l-3 150 -87 -12z"/>
<path d="M3842 2316 l3 -160 65 -12 c179 -34 339 -127 460 -269 184 -217 240
-526 141 -784 -11 -30 -18 -57 -15 -60 3 -3 65 -41 137 -83 l132 -77 23 51
c128 284 120 635 -22 923 -167 340 -492 577 -859 623 l-67 9 2 -161z"/>
<path d="M2480 2080 l0 -320 34 0 c29 0 35 4 41 28 3 15 24 65 46 111 l39 84
0 208 0 209 -80 0 -80 0 0 -320z"/>
<path d="M3621 1985 c-110 -24 -226 -89 -311 -175 -250 -250 -252 -649 -5
-895 122 -121 256 -183 419 -192 292 -16 560 170 649 452 31 99 31 271 0 370
-101 318 -428 510 -752 440z m254 -160 c172 -45 305 -179 350 -352 65 -249
-94 -511 -350 -578 -250 -65 -513 94 -580 350 -89 342 238 669 580 580z"/>
<path d="M3685 1671 c-92 -24 -173 -90 -215 -176 -34 -69 -35 -198 -2 -265 34
-71 75 -114 144 -151 58 -31 70 -34 148 -33 72 0 93 4 136 26 75 40 107 70
145 140 31 58 34 70 34 148 0 78 -3 90 -34 148 -57 104 -144 160 -260 167 -36
2 -79 1 -96 -4z"/>
<path d="M2977 816 c-70 -40 -130 -76 -134 -79 -18 -19 127 -180 236 -262 191
-144 391 -218 626 -232 304 -17 616 101 835 317 72 70 140 154 140 170 0 4
-61 42 -135 84 l-134 77 -72 -76 c-323 -339 -835 -340 -1158 0 -39 41 -72 75
-73 75 -2 0 -60 -34 -131 -74z"/>
</g>
</svg>
